<mxfile host="app.diagrams.net" agent="Mozilla/5.0 (Macintosh; Intel Mac OS X 10.15; rv:133.0) Gecko/20100101 Firefox/133.0" version="25.0.3">
  <diagram name="Page-1" id="8V4eRt_DlOjUmt9FqcKL">
    <mxGraphModel dx="1234" dy="1170" grid="1" gridSize="10" guides="1" tooltips="1" connect="1" arrows="1" fold="1" page="1" pageScale="1" pageWidth="850" pageHeight="1100" math="0" shadow="0">
      <root>
        <mxCell id="0" />
        <mxCell id="1" parent="0" />
        <mxCell id="G3OR5Me7nFAuhBpuz3m9-33" value="" style="rounded=0;whiteSpace=wrap;html=1;" vertex="1" parent="1">
          <mxGeometry x="10" y="40" width="580" height="440" as="geometry" />
        </mxCell>
        <mxCell id="G3OR5Me7nFAuhBpuz3m9-16" value="" style="group" vertex="1" connectable="0" parent="1">
          <mxGeometry x="50" y="170" width="90" height="120" as="geometry" />
        </mxCell>
        <mxCell id="G3OR5Me7nFAuhBpuz3m9-2" value="" style="rounded=0;whiteSpace=wrap;html=1;movable=1;resizable=1;rotatable=1;deletable=1;editable=1;locked=0;connectable=1;container=0;" vertex="1" parent="G3OR5Me7nFAuhBpuz3m9-16">
          <mxGeometry width="90" height="120" as="geometry" />
        </mxCell>
        <mxCell id="G3OR5Me7nFAuhBpuz3m9-1" value="" style="aspect=fixed;sketch=0;html=1;dashed=0;whitespace=wrap;verticalLabelPosition=bottom;verticalAlign=top;fillColor=#2875E2;strokeColor=#ffffff;points=[[0.005,0.63,0],[0.1,0.2,0],[0.9,0.2,0],[0.5,0,0],[0.995,0.63,0],[0.72,0.99,0],[0.5,1,0],[0.28,0.99,0]];shape=mxgraph.kubernetes.icon2;prIcon=api;movable=0;resizable=0;rotatable=0;deletable=0;editable=0;locked=1;connectable=0;" vertex="1" parent="G3OR5Me7nFAuhBpuz3m9-16">
          <mxGeometry x="20" y="20" width="50" height="48" as="geometry" />
        </mxCell>
        <mxCell id="G3OR5Me7nFAuhBpuz3m9-3" value="GraphQL" style="text;html=1;align=center;verticalAlign=middle;whiteSpace=wrap;rounded=0;movable=0;resizable=0;rotatable=0;deletable=0;editable=0;locked=1;connectable=0;" vertex="1" parent="G3OR5Me7nFAuhBpuz3m9-16">
          <mxGeometry x="15" y="80" width="60" height="30" as="geometry" />
        </mxCell>
        <mxCell id="G3OR5Me7nFAuhBpuz3m9-21" value="" style="group" vertex="1" connectable="0" parent="1">
          <mxGeometry x="290" y="90" width="90" height="120" as="geometry" />
        </mxCell>
        <mxCell id="G3OR5Me7nFAuhBpuz3m9-18" value="" style="rounded=0;whiteSpace=wrap;html=1;movable=1;resizable=1;rotatable=1;deletable=1;editable=1;locked=0;connectable=1;container=0;" vertex="1" parent="G3OR5Me7nFAuhBpuz3m9-21">
          <mxGeometry width="90" height="120" as="geometry" />
        </mxCell>
        <mxCell id="G3OR5Me7nFAuhBpuz3m9-19" value="" style="aspect=fixed;sketch=0;html=1;dashed=0;whitespace=wrap;verticalLabelPosition=bottom;verticalAlign=top;fillColor=#2875E2;strokeColor=#ffffff;points=[[0.005,0.63,0],[0.1,0.2,0],[0.9,0.2,0],[0.5,0,0],[0.995,0.63,0],[0.72,0.99,0],[0.5,1,0],[0.28,0.99,0]];shape=mxgraph.kubernetes.icon2;prIcon=api;movable=0;resizable=0;rotatable=0;deletable=0;editable=0;locked=1;connectable=0;" vertex="1" parent="G3OR5Me7nFAuhBpuz3m9-21">
          <mxGeometry x="20" y="20" width="50" height="48" as="geometry" />
        </mxCell>
        <mxCell id="G3OR5Me7nFAuhBpuz3m9-20" value="&lt;div&gt;Product&lt;/div&gt;&lt;div&gt;GraphQL&lt;br&gt;&lt;/div&gt;" style="text;html=1;align=center;verticalAlign=middle;whiteSpace=wrap;rounded=0;movable=1;resizable=1;rotatable=1;deletable=1;editable=1;locked=0;connectable=1;" vertex="1" parent="G3OR5Me7nFAuhBpuz3m9-21">
          <mxGeometry x="15" y="80" width="60" height="30" as="geometry" />
        </mxCell>
        <mxCell id="G3OR5Me7nFAuhBpuz3m9-22" value="" style="group" vertex="1" connectable="0" parent="1">
          <mxGeometry x="440" y="230" width="90" height="120" as="geometry" />
        </mxCell>
        <mxCell id="G3OR5Me7nFAuhBpuz3m9-23" value="" style="rounded=0;whiteSpace=wrap;html=1;movable=1;resizable=1;rotatable=1;deletable=1;editable=1;locked=0;connectable=1;container=0;" vertex="1" parent="G3OR5Me7nFAuhBpuz3m9-22">
          <mxGeometry width="90" height="120" as="geometry" />
        </mxCell>
        <mxCell id="G3OR5Me7nFAuhBpuz3m9-24" value="" style="aspect=fixed;sketch=0;html=1;dashed=0;whitespace=wrap;verticalLabelPosition=bottom;verticalAlign=top;fillColor=#2875E2;strokeColor=#ffffff;points=[[0.005,0.63,0],[0.1,0.2,0],[0.9,0.2,0],[0.5,0,0],[0.995,0.63,0],[0.72,0.99,0],[0.5,1,0],[0.28,0.99,0]];shape=mxgraph.kubernetes.icon2;prIcon=api;movable=0;resizable=0;rotatable=0;deletable=0;editable=0;locked=1;connectable=0;" vertex="1" parent="G3OR5Me7nFAuhBpuz3m9-22">
          <mxGeometry x="20" y="20" width="50" height="48" as="geometry" />
        </mxCell>
        <mxCell id="G3OR5Me7nFAuhBpuz3m9-25" value="&lt;div&gt;Inventory&lt;/div&gt;&lt;div&gt;GraphQL&lt;br&gt;&lt;/div&gt;" style="text;html=1;align=center;verticalAlign=middle;whiteSpace=wrap;rounded=0;movable=1;resizable=1;rotatable=1;deletable=1;editable=1;locked=0;connectable=1;" vertex="1" parent="G3OR5Me7nFAuhBpuz3m9-22">
          <mxGeometry x="15" y="80" width="60" height="30" as="geometry" />
        </mxCell>
        <mxCell id="G3OR5Me7nFAuhBpuz3m9-26" value="" style="group" vertex="1" connectable="0" parent="1">
          <mxGeometry x="270" y="340" width="90" height="120" as="geometry" />
        </mxCell>
        <mxCell id="G3OR5Me7nFAuhBpuz3m9-27" value="" style="rounded=0;whiteSpace=wrap;html=1;movable=1;resizable=1;rotatable=1;deletable=1;editable=1;locked=0;connectable=1;container=0;" vertex="1" parent="G3OR5Me7nFAuhBpuz3m9-26">
          <mxGeometry width="90" height="120" as="geometry" />
        </mxCell>
        <mxCell id="G3OR5Me7nFAuhBpuz3m9-28" value="" style="aspect=fixed;sketch=0;html=1;dashed=0;whitespace=wrap;verticalLabelPosition=bottom;verticalAlign=top;fillColor=#2875E2;strokeColor=#ffffff;points=[[0.005,0.63,0],[0.1,0.2,0],[0.9,0.2,0],[0.5,0,0],[0.995,0.63,0],[0.72,0.99,0],[0.5,1,0],[0.28,0.99,0]];shape=mxgraph.kubernetes.icon2;prIcon=api;movable=0;resizable=0;rotatable=0;deletable=0;editable=0;locked=1;connectable=0;" vertex="1" parent="G3OR5Me7nFAuhBpuz3m9-26">
          <mxGeometry x="20" y="20" width="50" height="48" as="geometry" />
        </mxCell>
        <mxCell id="G3OR5Me7nFAuhBpuz3m9-29" value="&lt;div&gt;Order&lt;br&gt;&lt;/div&gt;&lt;div&gt;GraphQL&lt;br&gt;&lt;/div&gt;" style="text;html=1;align=center;verticalAlign=middle;whiteSpace=wrap;rounded=0;movable=1;resizable=1;rotatable=1;deletable=1;editable=1;locked=0;connectable=1;" vertex="1" parent="G3OR5Me7nFAuhBpuz3m9-26">
          <mxGeometry x="15" y="80" width="60" height="30" as="geometry" />
        </mxCell>
        <mxCell id="G3OR5Me7nFAuhBpuz3m9-30" value="" style="endArrow=classic;html=1;rounded=0;" edge="1" parent="1" target="G3OR5Me7nFAuhBpuz3m9-18">
          <mxGeometry width="50" height="50" relative="1" as="geometry">
            <mxPoint x="140" y="230" as="sourcePoint" />
            <mxPoint x="210" y="180" as="targetPoint" />
            <Array as="points">
              <mxPoint x="220" y="170" />
            </Array>
          </mxGeometry>
        </mxCell>
        <mxCell id="G3OR5Me7nFAuhBpuz3m9-31" value="" style="endArrow=classic;html=1;rounded=0;" edge="1" parent="1">
          <mxGeometry width="50" height="50" relative="1" as="geometry">
            <mxPoint x="380" y="200" as="sourcePoint" />
            <mxPoint x="480" y="230" as="targetPoint" />
            <Array as="points">
              <mxPoint x="480" y="200" />
            </Array>
          </mxGeometry>
        </mxCell>
        <mxCell id="G3OR5Me7nFAuhBpuz3m9-32" value="" style="endArrow=classic;html=1;rounded=0;entryX=0.5;entryY=0;entryDx=0;entryDy=0;" edge="1" parent="1" target="G3OR5Me7nFAuhBpuz3m9-27">
          <mxGeometry width="50" height="50" relative="1" as="geometry">
            <mxPoint x="140" y="240" as="sourcePoint" />
            <mxPoint x="450" y="570" as="targetPoint" />
            <Array as="points">
              <mxPoint x="200" y="310" />
            </Array>
          </mxGeometry>
        </mxCell>
        <mxCell id="G3OR5Me7nFAuhBpuz3m9-34" value="Federated GraphQL" style="text;html=1;align=center;verticalAlign=middle;whiteSpace=wrap;rounded=0;fontSize=18;" vertex="1" parent="1">
          <mxGeometry x="70" y="80" width="60" height="30" as="geometry" />
        </mxCell>
      </root>
    </mxGraphModel>
  </diagram>
</mxfile>
